<?xml version="1.0" encoding="utf-8"?>
<!-- Generator: Adobe Illustrator 16.0.4, SVG Export Plug-In . SVG Version: 6.00 Build 0)  -->
<!DOCTYPE svg PUBLIC "-//W3C//DTD SVG 1.1//EN" "http://www.w3.org/Graphics/SVG/1.1/DTD/svg11.dtd">
<svg version="1.1" id="Ebene_1" xmlns="http://www.w3.org/2000/svg" xmlns:xlink="http://www.w3.org/1999/xlink" x="0px" y="0px"
	 width="195.7px" height="44.7px" viewBox="0 0 195.7 44.7" style="enable-background:new 0 0 195.7 44.7;" xml:space="preserve">
<style type="text/css">
<![CDATA[
	.st0{clip-path:url(#SVGID_2_);fill:none;stroke:#FFFFFF;stroke-width:1.127;stroke-miterlimit:3.864;}
	.st1{fill:#58585A;}
	.st2{fill:none;stroke:#691B1E;stroke-width:0.537;}
	.st3{fill:#691B1E;}
]]>
</style>
<rect x="0.3" y="0.3" class="st3" width="44.1" height="44.1"/>
<g>
	<defs>
		<rect id="SVGID_1_" x="0.3" y="0.3" width="44.1" height="44.1"/>
	</defs>
	<clipPath id="SVGID_2_">
		<use xlink:href="#SVGID_1_"  style="overflow:visible;"/>
	</clipPath>
	<path class="st0" d="M22.1,14.6c-0.2,0-0.7,0-0.9-0.5c0,0-1.5-0.1-0.4-2H20c-0.5,0-1.1-0.9-0.2-1.9c0,0-0.9-0.7,0-1.2
		c0,0,0.7-0.3,1,0.7l0.7-0.2V8.8L22.1,8l0.6,0.8v0.6l0.7,0.5l0.3-0.6l0.6,1.3h0.5l0.3,0.5v1h-1.6c0,0,1.2,1.9-0.4,1.9
		C23,14.1,22.9,14.6,22.1,14.6z M15.4,37.9V20.3h13.7v17.7 M13.5,15.5c0-4.8,3.9-8.7,8.7-8.7c4.8,0,8.7,3.9,8.7,8.7 M9,15.5
		C9,8.2,14.9,2.3,22.2,2.3c7.3,0,13.2,5.9,13.2,13.2 M35.6,21.9H31 M35.6,25.2H31 M35.6,28.4H31 M35.6,31.7H31 M13.5,21.9H9
		 M13.5,25.2H9 M13.5,28.4H9 M13.5,31.7H9 M22.3,15.5h16.4l-0.9,3l-15.6,0.1L6.8,18.5l-0.1,0l-0.9-3H22.3z M13.5,18.5v16.2 M9,18.5
		v16.2 M14.1,37.9v-3.2H8.4v3.2 M22.3,37.9h-16v2.3 M22.3,40.2H3v2.3 M22.3,42.6H-0.6 M22.3,20.3v17.7 M31,18.5v16.2 M35.6,18.5
		v16.2 M30.5,37.9v-3.2h5.8v3.2 M22.3,37.9h16v2.3 M22.3,40.2h19.3v2.3 M22.3,42.6h22.9"/>
</g>
<rect x="0.3" y="0.3" class="st2" width="44.1" height="44.1"/>
<rect x="47.7" y="0.3" class="st2" width="147.8" height="44.1"/>
<g>
	<path class="st3" d="M113.5,14.7h3.3v5.9h-1l-0.4-0.9c-0.6,0.7-1.1,1-2,1c-1.6,0-2.7-1.1-2.7-3v-6c0-1.7,1-3,2.9-3c2,0,3,1.5,3,3.2
		v0.7h-1.9c0-1.7-0.4-2.2-1.1-2.2c-0.5,0-0.9,0.3-0.9,1.3v6c0,0.7,0.2,1.2,0.9,1.2c0.8,0,1.1-0.5,1.1-1.6v-1.1h-1.3V14.7z"/>
	<path class="st3" d="M122.9,20.6h-2v-4.9l-2.4-6.8h2l1.4,4.5h0l1.3-4.5h2l-2.4,6.8V20.6z"/>
	<path class="st3" d="M135.4,8.9v11.7h-1.7v-9.1h0l-1.8,9.1h-1l-1.8-9.1h0v9.1h-1.7V8.9h2.6l1.4,6.8h0l1.4-6.8H135.4z"/>
	<path class="st3" d="M138.9,20.6V8.9h1.9l2.4,6.7h0V8.9h1.8v11.7h-1.7l-2.6-7.3h0v7.3H138.9z"/>
	<path class="st3" d="M149.4,20.6h-1.9l2.2-11.7h2.5l2.2,11.7h-1.9l-0.4-2.6h-2.2L149.4,20.6z M150.1,16.3h1.6l-0.8-5h0L150.1,16.3z
		"/>
	<path class="st3" d="M160.2,11.8c-0.1-1-0.6-1.3-1.1-1.3c-0.6,0-1,0.4-1,1.1c0,2,4.1,2.9,4.1,6.1c0,1.9-1.3,3-3.2,3
		c-1.9,0-2.9-1.5-3-3.2l1.9-0.3c0.1,1.2,0.6,1.8,1.2,1.8c0.7,0,1.2-0.4,1.2-1.1c0-2.3-4.1-2.9-4.1-6.3c0-1.9,1.1-2.9,3.1-2.9
		c1.6,0,2.6,1.2,2.8,2.8L160.2,11.8z"/>
	<path class="st3" d="M164.8,20.6V8.9h2v11.7H164.8z"/>
	<path class="st3" d="M170.2,8.9h2v8.8c0,0.9,0.3,1.3,1.1,1.3c0.7,0,1.1-0.4,1.1-1.3V8.9h2v8.7c0,2-1.2,3.1-3.1,3.1
		s-3.1-1.1-3.1-3.1V8.9z"/>
	<path class="st3" d="M187.5,8.9v11.7h-1.7v-9.1h0l-1.8,9.1h-1l-1.8-9.1h0v9.1h-1.8V8.9h2.6l1.4,6.8h0l1.4-6.8H187.5z"/>
</g>
<g>
	<path class="st1" d="M116,24.3v1.1h-4.1v4h3v1.1h-3v4.5h4.3V36h-5.5V24.3H116z"/>
	<path class="st1" d="M121.2,29.7c-0.2-0.7-0.5-1.3-1.5-1.3c-0.6,0-0.9,0.4-0.9,1c0,1.7,3.6,1.8,3.6,4.4c0,1.3-1,2.3-2.3,2.3
		c-1.5,0-2.3-0.8-2.7-2.2l1.1-0.2c0.2,0.7,0.7,1.5,1.5,1.5c0.6,0,1.2-0.6,1.2-1.3c0-1.9-3.6-2-3.6-4.5c0-1.1,0.9-2,2.2-2
		c1.3,0,2.1,0.7,2.3,2L121.2,29.7z"/>
	<path class="st1" d="M127.7,29.7c-0.2-0.7-0.5-1.3-1.5-1.3c-0.6,0-0.9,0.4-0.9,1c0,1.7,3.6,1.8,3.6,4.4c0,1.3-1,2.3-2.3,2.3
		c-1.5,0-2.3-0.8-2.7-2.2l1.1-0.2c0.2,0.7,0.7,1.5,1.5,1.5c0.6,0,1.2-0.6,1.2-1.3c0-1.9-3.6-2-3.6-4.5c0-1.1,0.9-2,2.2-2
		c1.3,0,2.1,0.7,2.3,2L127.7,29.7z"/>
	<path class="st1" d="M131.7,32v0.5c0,2.1,0.5,2.7,1.6,2.7c0.9,0,1.3-0.8,1.4-1.6l1.1,0.1c-0.2,1.3-1.1,2.4-2.7,2.4
		c-1.8,0-2.6-1.3-2.6-4.4c0-3,0.8-4.4,2.6-4.4c1.8,0,2.6,1.6,2.6,4V32H131.7z M134.5,31c0-1.8-0.4-2.6-1.4-2.6
		c-0.8,0-1.4,0.6-1.4,2.6H134.5z"/>
	<path class="st1" d="M137.9,27.6h1.1v0.9c0.6-0.6,1.4-1.1,1.9-1.1c1.2,0,1.8,0.6,1.8,2.2V36h-1.2v-6.2c0-1-0.3-1.4-0.9-1.4
		c-0.6,0-1.1,0.4-1.6,1V36h-1.2V27.6z"/>
	<path class="st1" d="M146.2,24.3l1.4,9.1h0l1.7-9.1h1l1.8,9.1h0l1.3-9.1h1.2L152.8,36h-1.1l-1.8-9.2h0L148,36H147L145,24.3H146.2z"
		/>
	<path class="st1" d="M157.4,32v0.5c0,2.1,0.5,2.7,1.6,2.7c0.9,0,1.3-0.8,1.4-1.6l1.1,0.1c-0.2,1.3-1.1,2.4-2.7,2.4
		c-1.8,0-2.6-1.3-2.6-4.4c0-3,0.8-4.4,2.6-4.4c1.8,0,2.6,1.6,2.6,4V32H157.4z M160.2,31c0-1.8-0.4-2.6-1.4-2.6
		c-0.8,0-1.4,0.6-1.4,2.6H160.2z"/>
	<path class="st1" d="M163.7,27.6h1.2v1h0c0.7-1,1.2-1.2,2.1-1.2v1.1c-0.9,0-1.5,0.3-2.2,1.5v6h-1.2V27.6z"/>
	<path class="st1" d="M172.3,35.2L172.3,35.2c-0.4,0.6-1,1-1.8,1c-1.3,0-2.4-1.1-2.4-4.4c0-3.2,1.1-4.4,2.4-4.4
		c0.6,0,1.2,0.4,1.6,0.8v-3.9h1.2v9.4c0,1.1,0.1,1.8,0.2,2.3h-1.1L172.3,35.2z M172.1,29.1c-0.3-0.3-0.7-0.7-1.3-0.7
		c-1,0-1.6,0.8-1.6,3.4c0,2.6,0.6,3.4,1.6,3.4c0.4,0,0.9-0.3,1.2-0.8V29.1z"/>
	<path class="st1" d="M176.6,32v0.5c0,2.1,0.5,2.7,1.6,2.7c0.9,0,1.3-0.8,1.4-1.6l1.1,0.1c-0.2,1.3-1.1,2.4-2.7,2.4
		c-1.8,0-2.6-1.3-2.6-4.4c0-3,0.8-4.4,2.6-4.4c1.8,0,2.6,1.6,2.6,4V32H176.6z M179.4,31c0-1.8-0.4-2.6-1.4-2.6
		c-0.8,0-1.4,0.6-1.4,2.6H179.4z"/>
	<path class="st1" d="M182.6,27.6h1.1v0.9c0.6-0.6,1.4-1.1,1.9-1.1c1.2,0,1.8,0.6,1.8,2.2V36h-1.2v-6.2c0-1-0.3-1.4-0.9-1.4
		c-0.6,0-1.1,0.4-1.6,1V36h-1.2V27.6z"/>
</g>
</svg>
